<?xml version="1.0" encoding="UTF-8" standalone="no"?>
<svg
   inkscape:version="1.0 (4035a4fb49, 2020-05-01)"
   sodipodi:docname="pi-of.svg"
   xml:space="preserve"
   viewBox="0 0 1166400 1166400"
   y="0px"
   x="0px"
   id="Content"
   version="1.1"
   width="1166400"
   height="1166400"
   xmlns:inkscape="http://www.inkscape.org/namespaces/inkscape"
   xmlns:sodipodi="http://sodipodi.sourceforge.net/DTD/sodipodi-0.dtd"
   xmlns="http://www.w3.org/2000/svg"
   xmlns:svg="http://www.w3.org/2000/svg"
   xmlns:rdf="http://www.w3.org/1999/02/22-rdf-syntax-ns#"
   xmlns:cc="http://creativecommons.org/ns#"
   xmlns:dc="http://purl.org/dc/elements/1.1/"><metadata
   id="metadata17"><rdf:RDF><cc:Work
       rdf:about=""><dc:format>image/svg+xml</dc:format><dc:type
         rdf:resource="http://purl.org/dc/dcmitype/StillImage" /><dc:title /></cc:Work></rdf:RDF></metadata><defs
   id="defs15" /><sodipodi:namedview
   inkscape:current-layer="Content"
   inkscape:window-maximized="1"
   inkscape:window-y="22"
   inkscape:window-x="1912"
   inkscape:cy="1089.1099"
   inkscape:cx="-410.47173"
   inkscape:zoom="0.25"
   inkscape:snap-page="true"
   showgrid="false"
   id="namedview13"
   inkscape:window-height="1027"
   inkscape:window-width="1920"
   inkscape:pageshadow="2"
   inkscape:pageopacity="0"
   guidetolerance="10"
   gridtolerance="10"
   objecttolerance="10"
   borderopacity="1"
   bordercolor="#666666"
   pagecolor="#ffffff"
   inkscape:document-rotation="0"
   inkscape:snap-nodes="true"
   inkscape:showpageshadow="2"
   inkscape:pagecheckerboard="0"
   inkscape:deskcolor="#d1d1d1"><inkscape:page
     x="0"
     y="0"
     width="1166400"
     height="1166400"
     id="page2"
     margin="0"
     bleed="0" /></sodipodi:namedview>


<path
   id="Selection"
   fill="none"
   stroke="#000000"
   stroke-width="0.650247"
   d="m 534.47098,998.83031 c -5.20149,0.926 -10.03836,3.10669 -14.76228,5.41749 -1.97121,0.9604 -5.83546,3.2365 -7.81533,3.4529 0,0 -13.02557,-1.8347 -13.02557,-1.8347 0,0 -30.39294,-4.9588 -30.39294,-4.9588 -33.45825,-6.70681 -66.9774,-16.90996 -98.1258,-30.90364 0,0 -16.49907,-7.97033 -16.49907,-7.97033 C 226.62511,902.00865 130.37497,779.86525 99.92125,643.14837 c -5.661812,-25.39102 -9.213414,-48.4887 -11.002242,-74.42493 0,0 -0.790229,-10.38487 -0.790229,-10.38487 -0.03452,-23.18424 -0.364761,-46.16077 1.884317,-69.23249 5.18417,-53.36959 20.259104,-105.39781 42.671724,-154.0423 41.99438,-91.14456 116.9695,-168.72823 205.5345,-215.92747 25.06985,-13.36187 51.22519,-23.945791 78.15336,-32.88544 23.23757,-7.728076 47.05694,-12.955127 71.20635,-16.935993 0,0 45.15523,-5.123203 45.15523,-5.123203 0,0 17.3674,-0.865409 17.3674,-0.865409 0,0 23.446,0 23.446,0 0,0 16.49906,0.865409 16.49906,0.865409 0,0 44.28683,4.56934 44.28683,4.56934 81.35766,11.501251 162.92362,48.609866 226.63595,99.893826 65.10175,52.42631 112.31501,118.64718 143.2897,195.83275 6.4695,16.13118 11.4886,32.63447 16.2474,49.32816 2.5789,9.05214 7.1205,26.49007 7.1987,35.48164 -3.4996,1.96447 -2.8396,2.71738 -4.3419,6.05784 C 1013.3337,402.2366 987.98599,340.74086 957.53227,296.12051 921.74674,243.6769 877.8593,198.66712 823.63827,164.94225 766.02195,129.11444 700.29496,106.25906 632.59683,99.820437 c 0,0 -48.62872,-1.877931 -48.62872,-1.877931 0,0 -17.36739,0.865409 -17.36739,0.865409 0,0 -17.3674,1.583695 -17.3674,1.583695 -25.04379,2.50102 -49.61,7.07037 -73.81146,13.99362 -73.3686,20.99475 -140.43282,59.8861 -193.75076,114.62303 -37.99991,39.01252 -67.31603,81.42607 -89.41607,131.1523 -17.13297,38.54519 -29.23803,78.44041 -34.89977,120.29145 0,0 -3.30852,30.28921 -3.30852,30.28921 0,0 -0.79023,8.65407 -0.79023,8.65407 0,0 -0.86839,17.30812 -0.86839,17.30812 -0.0436,25.71121 1.51102,51.56955 5.44471,77.02115 10.23808,66.117 36.32391,132.83119 74.73196,187.75848 10.35095,14.7985 21.65712,28.77478 33.46697,42.43955 0,0 19.217,19.90434 19.217,19.90434 39.72797,39.59237 83.91933,69.89884 135.46576,92.23501 0,0 39.945,15.05799 39.945,15.05799 0,0 29.52463,8.6714 29.52463,8.6714 0,0 -4.19423,-29.4238 -4.19423,-29.4238 0,0 -1.96256,-26.82755 -1.96256,-26.82755 0,0 -1.65855,-30.28921 -1.65855,-30.28921 0,0 -0.83368,-10.38488 -0.83368,-10.38488 0,0 0,-12.9811 0,-12.9811 0,0 0.83368,-9.51945 0.83368,-9.51945 0,0 0,-7.78866 0,-7.78866 0.88572,-11.84745 2.66588,-23.84199 5.0365,-35.48165 6.99039,-34.3047 19.90307,-67.23343 38.58171,-96.9255 18.9218,-30.0902 44.74708,-57.00432 70.64194,-81.17512 34.65663,-32.35753 71.6145,-61.63422 109.77933,-89.75991 0,0 14.76228,-9.93487 14.76228,-9.93487 -10.92407,3.79914 -39.80606,20.76109 -52.10216,27.3728 -22.85556,12.27145 -40.00585,19.5149 -61.5067,35.51626 -17.46295,12.98975 -35.62922,31.1027 -50.59121,47.01752 -38.92909,41.41835 -58.24163,70.721 -81.81785,122.02229 0,0 -17.47161,39.80866 -17.47161,39.80866 -11.08906,25.91027 -16.88115,41.3664 -16.12563,70.09788 -8.30164,-1.4971 -11.48855,-5.14052 -18.23578,-9.47616 0,0 -35.60319,-25.48626 -35.60319,-25.48626 -42.47194,-33.80272 -74.53218,-82.40393 -86.47231,-135.52255 -6.99905,-31.17197 -6.49536,-50.12435 -6.44325,-81.34819 0,0 0.83361,-11.2503 0.83361,-11.2503 0.9986,-22.76883 3.52554,-45.26939 8.82267,-67.50167 0,0 4.11607,-16.44272 4.11607,-16.44272 1.14618,-3.99817 1.11148,-6.35208 5.33176,-7.78866 8.82267,34.85857 16.81165,63.64197 36.74077,94.32928 3.69054,5.67706 7.31165,11.42336 11.88796,16.44271 3.37796,-10.6618 19.18227,-30.11614 26.66763,-39.18558 31.00953,-37.61055 55.41069,-56.69276 96.64096,-81.80684 0,0 111.15135,-63.71986 111.15135,-63.71986 29.30747,-18.5543 55.74067,-40.57889 81.62679,-63.52947 17.14164,-15.18787 36.78415,-33.71622 51.45095,-51.18876 17.51499,-20.88225 33.24988,-44.1011 42.02044,-70.0979 4.9063,-14.51286 7.15538,-29.80459 8.20608,-45.00113 0,0 0.79023,-10.38487 0.79023,-10.38487 0.009,-5.19243 0.0176,-11.36278 1.16358,-16.42541 0.32133,-1.43656 1.49364,-4.59531 3.57773,-3.3318 1.61518,0.9779 2.24907,7.43383 2.56166,9.37234 0,0 5.15812,26.8276 5.15812,26.8276 6.81674,29.44976 20.10277,54.39942 36.35869,79.61736 8.78787,13.63014 23.35046,32.5912 33.90984,45.00111 18.86968,22.17171 32.88517,36.52014 47.65612,62.30925 11.98351,20.92551 20.55435,43.52128 27.16265,66.63627 3.63844,12.73878 7.2856,29.18149 7.44192,42.4049 0.53841,46.10884 -19.27783,83.45111 -42.37646,122.02226 -14.8665,24.8285 -30.45372,48.87815 -48.13377,71.82868 -12.99078,16.85813 -27.65757,32.51335 -42.35041,47.89158 -6.04383,6.31752 -16.01276,13.98499 -19.9725,21.34093 7.8761,2.24141 21.78738,10.29835 29.52456,13.9417 27.7879,13.10229 57.25168,26.23048 88.57379,25.86697 6.9904,-0.0865 13.97205,-1.77402 20.84084,-2.87315 2.08409,-0.32885 5.48816,-0.33748 4.19423,2.89048 -0.851,2.1289 -4.09002,4.21451 -5.93095,5.53862 0,0 -16.499,11.00792 -16.499,11.00792 -22.85555,13.38784 -45.21607,23.26212 -70.33802,31.61332 -25.68636,8.5329 -43.0798,12.32339 -69.46957,17.25618 -19.53836,3.65203 -40.90028,7.23481 -60.78596,7.26079 0,0 -20.84083,0 -20.84083,0 0,0 -10.42044,-0.83084 -10.42044,-0.83084 0,0 -9.55213,0 -9.55213,0 0,0 -13.02549,-0.89996 -13.02549,-0.89996 0,0 -41.68179,-2.44912 -41.68179,-2.44912 -33.15439,-3.15008 -71.48422,-4.47418 -101.5993,-20.0515 -0.96395,7.21749 -2.59645,13.38785 -2.60511,20.76977 0,0 0,19.03896 0,19.03896 0.0176,10.03869 4.73258,40.92508 7.26826,51.05894 1.46751,5.84152 3.32584,12.04645 6.26959,17.30815 2.9872,5.3309 6.82541,8.61943 7.30298,14.7119 z" /><path
   style="fill:#000000;stroke-width:2.82843"
   d="m 494.97475,1003.6478 c -3.11127,-0.6611 -15.83919,-3.1351 -28.28427,-5.49796 C 404.84553,986.40799 330.47812,953.18003 279.33357,914.43722 188.98635,845.9978 124.11644,745.09128 100.58885,636.3961 c -29.01926,-134.06617 2.5277,-275.96358 85.83833,-386.09863 20.87678,-27.59869 70.51457,-75.33584 100.72439,-96.86761 31.75702,-22.63453 89.83129,-52.01476 126.79861,-64.148425 139.39643,-45.753609 290.213,-24.771994 412.83524,57.433675 68.36603,45.83243 120.90913,106.12583 158.84682,182.27738 15.89506,31.90579 35.67896,87.89142 38.16426,107.9995 1.1001,8.90083 -0.4858,5.49897 -5.2744,-11.31371 C 999.72912,359.69673 971.12546,305.99221 925.77076,251.53392 869.12791,183.5217 791.999,134.83829 704.27835,111.72891 656.78021,99.215858 632.04318,96.622332 577.35704,98.421984 507.64616,100.71608 464.57128,111.06122 403.29363,140.2262 277.95605,199.88037 189.81219,314.3249 159.47908,456.79098 c -5.28264,24.81108 -6.35787,39.00786 -6.53363,86.26703 -0.18279,49.14712 0.67398,60.83585 6.53054,89.09545 34.63007,167.10011 148.62019,293.07062 311.12088,343.81973 l 20.87693,6.51989 -1.93942,-18.89921 c -11.11976,-108.36004 -5.9081,-153.43213 25.07876,-216.88911 18.31191,-37.50036 47.55782,-73.88335 90.04142,-112.01493 31.49943,-28.27265 76.30517,-64.66594 101.88985,-82.75972 9.02449,-6.38221 15.05764,-12.05422 13.40699,-12.60444 -3.39694,-1.1323 -88.12626,43.80614 -107.59693,57.06691 -18.17191,12.37624 -62.73069,56.06087 -83.0692,81.43956 -23.78815,29.68318 -41.97553,61.14541 -63.24259,109.40294 -18.73448,42.51083 -26.22226,65.83639 -26.22226,81.6863 0,5.11787 -0.80446,9.30524 -1.78771,9.30524 -0.98325,0 -14.02937,-8.76029 -28.99138,-19.46733 -86.54335,-61.93163 -120.70012,-139.18081 -110.89828,-250.80837 3.00441,-34.21559 10.60432,-74.81105 13.99793,-74.77097 0.99794,0.0118 4.65784,10.23082 8.13313,22.70899 3.47528,12.47817 10.86607,32.01321 16.42397,43.41121 10.92504,22.40479 26.17773,42.03204 28.48032,36.64867 8.57412,-20.04592 56.0448,-72.17708 85.47501,-93.86659 10.37603,-7.64696 48.13971,-30.78364 83.91932,-51.41487 71.295,-41.11011 89.26453,-53.03665 125.60897,-83.36772 86.61349,-72.28289 121.63524,-127.37054 121.8293,-191.63207 0.027,-8.9449 1.0737,-16.26346 2.32598,-16.26346 1.25229,0 3.8295,9.22775 5.72712,20.5061 6.78638,40.3341 30.93199,84.80803 74.09262,136.47161 44.85241,53.68861 60.6399,81.81698 73.51892,130.98771 14.38594,54.9239 2.17056,99.32062 -49.56378,180.13927 -25.01461,39.07747 -42.4862,61.36912 -75.122,95.84657 -12.77061,13.49126 -22.72676,24.87941 -22.12478,25.30696 0.60197,0.42757 15.12102,7.26956 32.26455,15.20443 41.09478,19.02075 60.16596,24.36812 87.14737,24.43518 21.90959,0.0545 22.07904,0.11068 15.55635,5.16233 -11.95636,9.25988 -54.25203,29.90341 -79.24928,38.67974 -36.9907,12.98711 -89.70913,23.42868 -126.74937,25.10435 -33.80943,1.52953 -117.22453,-2.9507 -150.96048,-8.10808 -10.69125,-1.63441 -26.48222,-5.395 -35.09102,-8.35687 -8.60883,-2.96187 -16.55071,-5.38521 -17.64862,-5.38521 -4.12753,0 -5.57175,32.33774 -2.56411,57.41412 1.71674,14.31346 5.61273,33.02483 8.65776,41.58082 3.04505,8.556 6.1882,17.5011 6.9848,19.87802 2.45289,7.31914 -17.80724,12.86764 -34.23828,9.37664 z"
   id="path2" /></svg>
